<?xml version="1.0" encoding="utf-8"?>
<svg viewBox="539.043 103.612 258.324 157.629" xmlns="http://www.w3.org/2000/svg">
  <g fill="#019146" fill-rule="nonzero" stroke="none" stroke-width="1" stroke-linecap="butt" stroke-linejoin="miter" stroke-miterlimit="10" stroke-dasharray="" stroke-dashoffset="0" font-family="none" font-weight="none" font-size="none" text-anchor="none" style="mix-blend-mode: normal" transform="matrix(0.9999999999999999, 0, 0, 0.9999999999999999, 540.4076699139966, 63.03501317009352)">
    <g transform="scale(5.12,5.12)">
      <path d="M15.03516,9.63672c0,0.63672 0.03125,3.36328 0.03125,3.36328h4.5c0,0 0.53125,0 0.53125,-0.63672c0,-0.63672 -0.03125,-3.36328 -0.03125,-3.36328h-4.5c0,0 -0.53125,0 -0.53125,0.63672zM15.03516,15.63672c0,0.63672 0.03125,16.36328 0.03125,16.36328h4.5c0,0 0.53125,0 0.53125,-0.63672c0,-0.10547 -0.03125,-16.36328 -0.03125,-16.36328h-4.5c-0.22656,0.0625 -0.53125,0 -0.53125,0.63672zM9.56641,9c0,0 -0.53125,0 -0.53125,0.63672l0.03125,5.36328h-8c0,0 -1,0.19531 -1,0.83594l-0.06641,16.16406h13.06641c0,0 0.96875,0.03125 1,-1c0.01953,-0.63672 0,-22 0,-22zM9.06641,28.5c0,0.63672 -0.5,0.5 -0.5,0.5h-3.5v-10.5c0,-0.63672 0.54297,-0.54297 0.54297,-0.54297l3.45703,0.04297zM37.06641,15c-0.45312,-0.10937 -0.98047,0.19141 -1,1l0.01172,16h8.98828v2h-8c0,0 -1,-0.07422 -1,1c0,0.63672 0.07031,3 0.07031,3h13.42969c0,0 0.5,0.13672 0.5,-0.5c0,-0.63672 0,-22.5 0,-22.5zM45.06641,28.5c0,0.63672 -0.5,0.5 -0.5,0.5h-3.5v-10.5c0,-0.63672 0.5,-0.5 0.5,-0.5h3.5zM21.56641,15c0,0 -0.53125,0 -0.53125,0.63672l0.03125,16.36328h9v2h-8.5c0,0 -0.5,-0.13672 -0.5,0.5c0,0.63672 0,3.5 0,3.5h13.47656c0,0 0.53125,0 0.53125,-0.63672c0,-0.63672 -0.00781,-22.36328 -0.00781,-22.36328zM30.06641,28.5c0,0.63672 -0.5,0.5 -0.5,0.5h-3.5v-10.5c0,-0.63672 0.5,-0.5 0.5,-0.5h3.5z" style="fill: rgb(255, 255, 255);"/>
    </g>
  </g>
</svg>