<?xml version="1.0" encoding="utf-8"?>
<svg viewBox="1249.316 -343.875 220.783 223.701" xmlns="http://www.w3.org/2000/svg">
  <g fill="#019146" fill-rule="nonzero" stroke="none" stroke-width="1" stroke-linecap="butt" stroke-linejoin="miter" stroke-miterlimit="10" stroke-dasharray="" stroke-dashoffset="0" font-family="none" font-weight="none" font-size="none" text-anchor="none" style="mix-blend-mode: normal" transform="matrix(0.9999999999999999, 0, 0, 0.9999999999999999, 1231.4868531074167, -357.4997054785399)">
    <g transform="scale(10.66667,10.66667)">
      <path d="M12,2c-5.523,0 -10,4.477 -10,10c0,5.013 3.693,9.153 8.505,9.876v-7.226h-2.474v-2.629h2.474v-1.749c0,-2.896 1.411,-4.167 3.818,-4.167c1.153,0 1.762,0.085 2.051,0.124v2.294h-1.642c-1.022,0 -1.379,0.969 -1.379,2.061v1.437h2.995l-0.406,2.629h-2.588v7.247c4.881,-0.661 8.646,-4.835 8.646,-9.897c0,-5.523 -4.477,-10 -10,-10z" style="fill: rgb(250, 250, 250);"/>
    </g>
  </g>
</svg>