<svg version="1.1" xmlns="http://www.w3.org/2000/svg" xmlns:xlink="http://www.w3.org/1999/xlink" width="50px" height="50px" viewBox="0,0,256,256"><g fill="#ffffff" fill-rule="nonzero" stroke="none" stroke-width="1" stroke-linecap="butt" stroke-linejoin="miter" stroke-miterlimit="10" stroke-dasharray="" stroke-dashoffset="0" font-family="none" font-weight="none" font-size="none" text-anchor="none" style="mix-blend-mode: normal"><g transform="scale(5.12,5.12)"><path d="M8,2c-0.55078,0 -1,0.44922 -1,1v44c0,0.55469 0.44922,1 1,1h26c0.26563,0 0.53125,-0.09375 0.71875,-0.28125l8,-8c0.1875,-0.1875 0.28125,-0.45312 0.28125,-0.71875v-36c0,-0.55078 -0.44531,-1 -1,-1zM25,6c0.55078,0 1,0.44922 1,1c0,0.55078 -0.44922,1 -1,1c-0.55078,0 -1,-0.44922 -1,-1c0,-0.55078 0.44922,-1 1,-1zM12,10h26v28h-4c-0.03125,0 -0.0625,0 -0.09375,0c-0.51562,0.04688 -0.91016,0.48047 -0.90625,1v4h-21zM35,40h4.59375l-4.59375,4.59375z"></path></g></g></svg>