<?xml version="1.0" encoding="utf-8"?>
<svg viewBox="244.723 -387.422 229.793 232.71" xmlns="http://www.w3.org/2000/svg">
  <g fill="#019146" fill-rule="nonzero" stroke="none" stroke-width="1" stroke-linecap="butt" stroke-linejoin="miter" stroke-miterlimit="10" stroke-dasharray="" stroke-dashoffset="0" font-family="none" font-weight="none" font-size="none" text-anchor="none" style="mix-blend-mode: normal" transform="matrix(0.9999999999999999, 0, 0, 0.9999999999999999, 231.1946327446285, -401.05747655205323)">
    <g transform="scale(4,4)">
      <path d="M9,6c-1.65234,0 -3,1.34766 -3,3v46c0,1.65234 1.34766,3 3,3h46c1.65234,0 3,-1.34766 3,-3v-46c0,-1.65234 -1.34766,-3 -3,-3zM9,8h46c0.55078,0 1,0.44922 1,1v46c0,0.55078 -0.44922,1 -1,1h-46c-0.55078,0 -1,-0.44922 -1,-1v-46c0,-0.55078 0.44922,-1 1,-1zM14,12c-1.10156,0 -2,0.89844 -2,2v8c0,1.10156 0.89844,2 2,2h8c1.10156,0 2,-0.89844 2,-2v-8c0,-1.10156 -0.89844,-2 -2,-2zM27,12c-0.55469,0 -1,0.44922 -1,1v4c0,0.55078 0.44531,1 1,1h3v3c0,0.55078 0.44531,1 1,1c0.55469,0 1,-0.44922 1,-1v-3h4v4h-3c-0.55469,0 -1,0.44922 -1,1v3h-5c-0.55469,0 -1,0.44922 -1,1v5h-2v-3c0,-0.55078 -0.44531,-1 -1,-1h-4c-0.55469,0 -1,0.44922 -1,1v4c0,0.55078 0.44531,1 1,1h7v3c0,0.55078 0.44531,1 1,1h5v2h-3c-0.55469,0 -1,0.44922 -1,1v4c0,0.55078 0.44531,1 1,1h4c0.55469,0 1,-0.44922 1,-1v-8c0,-0.55078 -0.44531,-1 -1,-1h-5v-2h8v11c0,0.55078 0.44531,1 1,1h4c0.55469,0 1,-0.44922 1,-1v-3h4v9c0,0.55078 0.44531,1 1,1h4c0.55469,0 1,-0.44922 1,-1v-4c0,-0.55078 -0.44531,-1 -1,-1h-3v-5c0,-0.55078 -0.44531,-1 -1,-1h-5v-2h9c0.55469,0 1,-0.44922 1,-1v-10c0,-0.55078 -0.44531,-1 -1,-1h-6c-0.55469,0 -1,0.44922 -1,1c0,0.55078 0.44531,1 1,1h5v4h-3c-0.55469,0 -1,0.44922 -1,1v3h-5c-0.55469,0 -1,0.44922 -1,1v3h-2v-6h3c0.55469,0 1,-0.44922 1,-1v-4c0,-0.55078 -0.44531,-1 -1,-1h-4c-0.55469,0 -1,0.44922 -1,1v3h-8v-4h5c0.55469,0 1,-0.44922 1,-1v-3h3c0.55469,0 1,-0.44922 1,-1v-6c0,-0.55078 -0.44531,-1 -1,-1h-5v-3c0,-0.55078 -0.44531,-1 -1,-1zM35,12c-0.55469,0 -1,0.44922 -1,1c0,0.55078 0.44531,1 1,1h2c0.55469,0 1,-0.44922 1,-1c0,-0.55078 -0.44531,-1 -1,-1zM42,12c-1.10156,0 -2,0.89844 -2,2v8c0,1.10156 0.89844,2 2,2h8c1.10156,0 2,-0.89844 2,-2v-8c0,-1.10156 -0.89844,-2 -2,-2zM14,14h8v8h-8zM28,14h2v2h-2zM42,14h8v8h-8zM17,16c-0.55469,0 -1,0.44922 -1,1v2c0,0.55078 0.44531,1 1,1h2c0.55469,0 1,-0.44922 1,-1v-2c0,-0.55078 -0.44531,-1 -1,-1zM45,16c-0.55469,0 -1,0.44922 -1,1v2c0,0.55078 0.44531,1 1,1h2c0.55469,0 1,-0.44922 1,-1v-2c0,-0.55078 -0.44531,-1 -1,-1zM27,20c-0.55469,0 -1,0.44922 -1,1v2c0,0.55078 0.44531,1 1,1c0.55469,0 1,-0.44922 1,-1v-2c0,-0.55078 -0.44531,-1 -1,-1zM13,26c-0.55469,0 -1,0.44922 -1,1c0,0.55078 0.44531,1 1,1h2c0.55469,0 1,-0.44922 1,-1c0,-0.55078 -0.44531,-1 -1,-1zM20,30h2v2h-2zM38,30h2v2h-2zM13,31c-0.55469,0 -1,0.44922 -1,1c0,0.55078 0.44531,1 1,1h2c0.55469,0 1,-0.44922 1,-1c0,-0.55078 -0.44531,-1 -1,-1zM48,34h2v2h-2zM13,36c-0.55469,0 -1,0.44922 -1,1c0,0.55078 0.44531,1 1,1h2c0.55469,0 1,-0.44922 1,-1c0,-0.55078 -0.44531,-1 -1,-1zM19,36c-0.55469,0 -1,0.44922 -1,1c0,0.55078 0.44531,1 1,1h4c0.55469,0 1,-0.44922 1,-1c0,-0.55078 -0.44531,-1 -1,-1zM14,40c-1.10156,0 -2,0.89844 -2,2v8c0,1.10156 0.89844,2 2,2h8c1.10156,0 2,-0.89844 2,-2v-8c0,-1.10156 -0.89844,-2 -2,-2zM51,40c-0.55469,0 -1,0.44922 -1,1v2c0,0.55078 0.44531,1 1,1c0.55469,0 1,-0.44922 1,-1v-2c0,-0.55078 -0.44531,-1 -1,-1zM14,42h8v8h-8zM30,42h2v2h-2zM38,42h2v2h-2zM17,44c-0.55469,0 -1,0.44922 -1,1v2c0,0.55078 0.44531,1 1,1h2c0.55469,0 1,-0.44922 1,-1v-2c0,-0.55078 -0.44531,-1 -1,-1zM27,48c-0.55469,0 -1,0.44922 -1,1v2c0,0.55078 0.44531,1 1,1c0.55469,0 1,-0.44922 1,-1v-2c0,-0.55078 -0.44531,-1 -1,-1zM32,48c-0.55469,0 -1,0.44922 -1,1v2c0,0.55078 0.44531,1 1,1c0.55469,0 1,-0.44922 1,-1v-2c0,-0.55078 -0.44531,-1 -1,-1zM37,48c-0.55469,0 -1,0.44922 -1,1v2c0,0.55078 0.44531,1 1,1c0.55469,0 1,-0.44922 1,-1v-2c0,-0.55078 -0.44531,-1 -1,-1zM42,48c-0.55469,0 -1,0.44922 -1,1v2c0,0.55078 0.44531,1 1,1c0.55469,0 1,-0.44922 1,-1v-2c0,-0.55078 -0.44531,-1 -1,-1zM48,48h2v2h-2z" style="fill: rgb(255, 255, 255);"/>
    </g>
  </g>
</svg>